<?xml version="1.0" encoding="utf-8"?>
<!-- Generator: Adobe Illustrator 16.0.0, SVG Export Plug-In . SVG Version: 6.00 Build 0)  -->
<!DOCTYPE svg PUBLIC "-//W3C//DTD SVG 1.1//EN" "http://www.w3.org/Graphics/SVG/1.1/DTD/svg11.dtd">
<svg version="1.1" id="圖層_1" xmlns="http://www.w3.org/2000/svg" xmlns:xlink="http://www.w3.org/1999/xlink" x="0px" y="0px"
	 width="319px" height="316px" viewBox="0 0 319 316" enable-background="new 0 0 319 316" xml:space="preserve">
<g>
	<g>
		<g>
			<linearGradient id="SVGID_1_" gradientUnits="userSpaceOnUse" x1="116.1733" y1="28.709" x2="85.0514" y2="295.9238">
				<stop  offset="0" style="stop-color:#EE87B4"/>
				<stop  offset="0.9803" style="stop-color:#17BBEF"/>
			</linearGradient>
			<path fill="url(#SVGID_1_)" d="M10.03,143.566c0-1.649,0.329-3.3,0.99-5.283c13.209-26.746,37.974-41.604,65.38-41.604
				c22.783,0,45.894,8.585,66.369,17.831c10.894-7.595,24.762-12.879,38.628-12.879c6.603,0,17.505,2.972,17.505,13.208
				c0,11.886-15.193,15.848-22.451,15.848c-11.23,0-21.467-6.931-30.381-9.903c-4.955,4.953-9.905,12.877-6.606,20.14
				c2.973-0.329,5.286-0.329,9.248-0.329c4.292,0,7.922,1.322,7.922,4.622c0,4.953-6.271,5.285-7.262,5.285
				c-4.951,0-10.567-3.304-11.887-5.285c-23.116,3.963-50.188,26.084-50.188,45.567c0,14.858,10.896,19.812,18.157,19.812
				c19.15,0,54.813-23.442,62.738-23.442c0.657,2.642-38.305,27.736-62.738,27.736c-14.196,0-26.744-8.257-26.744-25.756
				c0-28.066,32.688-44.245,54.813-47.549c-6.271-9.242-1.323-18.82,5.614-24.101c-20.143-8.917-41.938-16.842-63.068-16.842
				c-19.482,0-38.633,7.264-54.152,25.755c-6.603,7.594-0.329,21.462-9.247,21.462c0,0-0.328,0-0.661-0.329
				C10.69,147.197,10.03,145.546,10.03,143.566z M109.09,210.595c0.99,0,2.642-0.329,3.963-0.658
				C111.731,210.266,110.408,210.595,109.09,210.595z M143.429,144.556c0.992,1.651,8.916,2.974,9.575,1.322
				C153.996,143.566,144.088,143.896,143.429,144.556z M149.372,117.811c0.328,0,0.661,0.331,0.99,0.331
				c8.917,3.303,16.51,8.584,25.095,8.584c7.921,0,19.48-3.629,19.48-11.886c0-9.575-17.827-8.915-20.473-8.915
				C165.221,107.243,155.974,111.866,149.372,117.811z"/>
			<linearGradient id="SVGID_2_" gradientUnits="userSpaceOnUse" x1="197.7461" y1="38.2104" x2="166.6245" y2="305.422">
				<stop  offset="0" style="stop-color:#EE87B4"/>
				<stop  offset="0.9803" style="stop-color:#17BBEF"/>
			</linearGradient>
			<path fill="url(#SVGID_2_)" d="M192.936,171.191c-10.722,5.889-19.759,16.61-26.07,27.334c-3.153,5.254-3.572,7.777-5.045,7.777
				c-0.631,0-1.05-1.051-1.05-2.734c0-1.261,0-3.152,1.05-5.254c7.356-15.769,14.717-31.958,21.659-30.695
				c0.626,0.208,1.045,0.42,1.045,1.053c0,2.52-5.045,7.984-7.358,11.561c3.998-4.203,12.611-12.613,18.085-12.613
				c2.518,0,4.414,1.892,4.414,6.095c0,9.673-5.464,11.984-6.519,11.984c-1.896,0-1.473-2.732-1.05-3.783
				c0.627-1.472,3.577-5.886,4.199-10.3C196.296,169.932,193.984,170.562,192.936,171.191z"/>
			<linearGradient id="SVGID_3_" gradientUnits="userSpaceOnUse" x1="223.8135" y1="41.2441" x2="192.6911" y2="308.4621">
				<stop  offset="0" style="stop-color:#EE87B4"/>
				<stop  offset="0.9803" style="stop-color:#17BBEF"/>
			</linearGradient>
			<path fill="url(#SVGID_3_)" d="M214.797,167.619c1.046,0,1.469,0.42,1.469,1.26s-0.631,1.893-0.838,2.104
				c-16.821,23.124-18.299,29.854-18.299,29.854c-0.207,0.633-0.207,1.053-0.207,1.472c0,1.472,1.055,1.684,1.685,1.684
				c3.153,0.42,15.137-9.042,15.137-9.462c0.424-0.211,0.838-0.211,1.054-0.211c0.208,0,0.415,0.211,0.415,0.421
				c0,0.843-1.469,2.521-1.469,2.521c-10.938,9.673-15.137,9.462-15.56,9.462c-4.838-0.207-4.622-4.626-4.622-4.626
				c0-7.567,5.888-18.71,14.51-31.114C209.324,169.511,212.481,167.619,214.797,167.619z M215.005,160.682
				c0-2.948,3.365-7.57,5.681-7.57c0.838,0,1.468,0.629,1.468,1.891c0,3.364-3.364,7.57-5.469,7.57c-0.419,0-0.626,0-0.842-0.212
				C215.212,162.153,215.005,161.521,215.005,160.682z"/>
			<linearGradient id="SVGID_4_" gradientUnits="userSpaceOnUse" x1="249.8135" y1="44.2749" x2="218.6918" y2="311.4868">
				<stop  offset="0" style="stop-color:#EE87B4"/>
				<stop  offset="0.9803" style="stop-color:#17BBEF"/>
			</linearGradient>
			<path fill="url(#SVGID_4_)" d="M254.111,194.318c0.207,0,0.414,0.211,0.414,0.421c0,0.843-1.468,2.521-1.468,2.521
				c-13.659,10.726-15.979,9.462-15.556,9.462c-2.312,0-4.838-1.891-4.838-6.098c0-6.938,5.045-15.348,12.401-26.488
				c1.266-1.684,2.32-3.154,1.896-3.787c-0.631,0-1.266,0.212-1.896,0.422c-12.186,4.626-22.704,16.189-29.638,27.543
				c-2.946,4.833-3.572,7.988-5.262,7.988c-0.63,0-1.049-1.051-1.049-2.734c0-1.472,0.207-3.152,1.049-5.254
				c6.312-15.769,14.299-30.695,21.655-30.695c0.843,0,1.059,0.629,1.059,1.26c0,2.736-6.312,9.882-9.253,14.087
				c5.883-6.31,12.609-11.563,20.808-14.927c7.149-1.683,8.415,1.26,8.415,3.994c0,1.053-0.212,1.893-0.423,2.104
				c-15.768,21.653-16.19,26.068-16.19,26.699c0,2.943,0.842,3.155,1.68,3.155c1.896,0,15.142-9.252,15.142-9.462
				C253.48,194.318,253.896,194.318,254.111,194.318z"/>
		</g>
	</g>
	<linearGradient id="SVGID_5_" gradientUnits="userSpaceOnUse" x1="177.2021" y1="35.8169" x2="146.0805" y2="303.0289">
		<stop  offset="0" style="stop-color:#EE87B4"/>
		<stop  offset="0.9803" style="stop-color:#17BBEF"/>
	</linearGradient>
	<path fill="url(#SVGID_5_)" d="M21.111,111.479c0,0,1.178-3.25,3.381-9.341c1.094-3.046,2.922-6.632,4.818-10.952
		c0.964-2.155,2.307-4.303,3.574-6.694c1.3-2.369,2.638-4.918,4.378-7.409c6.426-10.284,15.729-21.995,28.66-33.006
		c12.876-11.006,29.519-21.169,49.353-27.903c5.039-1.381,10.084-3.224,15.458-4.138c2.671-0.517,5.344-1.195,8.082-1.596
		c2.752-0.345,5.526-0.693,8.327-1.042c2.789-0.449,5.645-0.442,8.507-0.576c1.434-0.055,2.872-0.109,4.316-0.162l2.247-0.075
		l2.152,0.114c2.884,0.153,5.781,0.306,8.706,0.463l4.401,0.25l4.454,0.687c23.799,3.243,48.144,12.495,68.837,28.461
		c10.58,7.638,19.82,17.288,28.213,27.669c1.998,2.686,4.001,5.382,6.003,8.084c1.909,2.77,3.532,5.743,5.314,8.614l2.624,4.35
		l2.214,4.584c1.425,3.083,3.004,6.107,4.389,9.222c2.28,6.428,5.076,12.727,6.531,19.47l1.311,4.994
		c0.463,1.664,0.891,3.331,1.094,5.046l1.605,10.236c1.394,13.771,1.711,27.718-0.746,41.448
		c-0.696,6.973-2.893,13.598-4.454,20.377l-3.497,9.818c-0.618,1.621-1.103,3.297-1.831,4.873l-2.227,4.701
		c-5.593,12.721-13.496,24.254-22.339,34.719l-6.88,7.645c-2.522,2.309-5.041,4.613-7.551,6.91
		c-1.283,1.121-2.461,2.364-3.824,3.373l-4.065,3.061c-2.748,1.977-5.315,4.207-8.195,5.959c-5.746,3.505-11.369,7.191-17.482,9.857
		c-5.87,3.158-12.159,5.225-18.303,7.518c-1.521,0.625-3.097,1.041-4.684,1.434l-4.729,1.229c-3.157,0.733-6.231,1.851-9.451,2.176
		c-6.368,0.922-12.645,2.164-18.965,2.201c-3.192,0.127-6.205,0.377-9.479,0.393c-3.081-0.156-6.142-0.316-9.181-0.471l-4.552-0.238
		c-1.513-0.068-3.038-0.416-4.547-0.612c-3.025-0.466-6.031-0.928-9.015-1.384c-23.741-4.266-44.566-14.777-61.225-27.301
		c-16.715-12.613-29.21-27.57-37.953-42.048c-2.166-3.642-4.399-7.091-5.945-10.751c-1.643-3.6-3.442-6.975-4.778-10.385
		c-2.459-6.905-4.949-13.168-6.104-19.158c-0.692-2.957-1.462-5.729-1.974-8.377c-0.37-2.676-0.723-5.188-1.047-7.518
		c-0.327-2.335-0.627-4.489-0.904-6.465c-0.079-1.997-0.15-3.807-0.221-5.428c-0.24-6.482-0.37-9.939-0.37-9.939h0.33
		c0,0,0.221,3.444,0.633,9.9c0.104,1.611,0.226,3.408,0.359,5.392c0.324,1.959,0.68,4.095,1.063,6.407
		c0.379,2.308,0.794,4.788,1.234,7.435c0.574,2.618,1.412,5.349,2.17,8.259c1.326,5.887,3.868,12.06,6.387,18.852
		c1.369,3.347,3.193,6.663,4.862,10.193c1.577,3.59,3.835,6.963,6.018,10.532c8.825,14.159,21.333,28.708,37.912,40.854
		c2.09,1.484,4.095,3.143,6.311,4.532c2.247,1.345,4.517,2.702,6.81,4.069c4.464,2.949,9.531,4.99,14.488,7.419
		c2.452,1.292,5.109,2.149,7.745,3.116c2.64,0.961,5.297,1.932,7.974,2.91c2.724,0.834,5.535,1.453,8.331,2.199l4.221,1.08
		l2.119,0.543l2.163,0.329c23.022,4.153,48.563,3.233,72.921-4.661c6.012-2.208,12.173-4.184,17.933-7.242
		c6.003-2.564,11.503-6.141,17.161-9.534c2.827-1.694,5.346-3.866,8.054-5.783l4-2.972c1.35-0.978,2.5-2.195,3.762-3.282
		c2.479-2.233,4.957-4.477,7.444-6.724l6.818-7.422c8.804-10.145,16.729-21.373,22.392-33.814l2.259-4.6
		c0.736-1.539,1.23-3.184,1.86-4.771l3.577-9.631c1.619-6.648,3.886-13.195,4.648-20.01c0.459-3.396,1.244-6.729,1.434-10.176
		l0.573-10.344c0.353-3.465-0.079-6.792-0.163-10.254l-0.233-5.138c-0.04-1.719-0.168-3.426-0.477-5.111l-1.504-10.154
		c-0.186-1.704-0.596-3.361-1.037-5.011l-1.248-4.962c-1.38-6.703-4.097-12.973-6.302-19.38
		c-10.713-24.883-27.803-46.586-48.85-61.49c-20.667-15.487-44.933-23.903-68.052-27.071l-4.322-0.651l-4.393-0.227
		c-2.924-0.137-5.83-0.277-8.713-0.414l-2.154-0.105l-2.055,0.092c-1.416,0.059-2.827,0.12-4.232,0.182
		c-2.803,0.162-5.605,0.098-8.342,0.534c-2.748,0.327-5.469,0.648-8.17,0.968c-2.688,0.374-5.313,1.025-7.935,1.514
		c-5.284,0.857-10.234,2.64-15.196,3.955C96.617,25.26,80.235,35.17,67.328,45.745C54.375,56.364,45.084,67.854,38.423,77.841
		c-1.796,2.419-3.189,4.906-4.545,7.221c-1.319,2.334-2.72,4.44-3.729,6.548c-1.993,4.225-3.907,7.725-5.087,10.742
		c-2.373,6.027-3.637,9.244-3.637,9.244L21.111,111.479z"/>
</g>
</svg>
